<?xml version="1.0" encoding="utf-8"?>
<!-- Generator: Adobe Illustrator 23.1.1, SVG Export Plug-In . SVG Version: 6.00 Build 0)  -->
<svg version="1.1" id="func_x5F_ablout" xmlns="http://www.w3.org/2000/svg" xmlns:xlink="http://www.w3.org/1999/xlink" x="0px"
	 y="0px" viewBox="0 0 48 48" style="enable-background:new 0 0 48 48;" xml:space="preserve">
<g id="about">
	<path id="path4138" style="fill:#808C99;" d="M24,12c-6.6,0-12,5.4-12,12s5.4,12,12,12s12-5.4,12-12S30.6,12,24,12z M24,16.4
		c4.2,0,7.6,3.4,7.6,7.6s-3.4,7.6-7.6,7.6s-7.6-3.4-7.6-7.6S19.8,16.4,24,16.4z"/>
	<path id="rect4157" style="fill:#808C99;" d="M22.4,22.9h3.3c0.3,0,0.5,0.2,0.5,0.5v5.5c0,0.3-0.2,0.5-0.5,0.5h-3.3
		c-0.3,0-0.5-0.2-0.5-0.5v-5.5C21.8,23.2,22.1,22.9,22.4,22.9z"/>
	<circle id="path4159" style="fill:#808C99;" cx="24" cy="19.6" r="2.2"/>
</g>
</svg>
