<?xml version="1.0" encoding="utf-8"?>
<!-- Generator: Adobe Illustrator 23.1.1, SVG Export Plug-In . SVG Version: 6.00 Build 0)  -->
<svg version="1.1" id="func_x5F_clover" xmlns="http://www.w3.org/2000/svg" xmlns:xlink="http://www.w3.org/1999/xlink" x="0px"
	 y="0px" viewBox="0 0 48 48" style="enable-background:new 0 0 48 48;" xml:space="preserve">
<g id="clover">
	<path style="fill:#808C99;" d="M21.1,12.8h-7c-0.8,0-1.4,0.6-1.4,1.4v7c0,0.8,0.6,1.4,1.4,1.4h8.4v-8.4
		C22.5,13.4,21.9,12.8,21.1,12.8z"/>
	<path style="fill:#808C99;" d="M33.9,25.5h-8.4v8.4c0,0.8,0.6,1.4,1.4,1.4h7c0.8,0,1.4-0.6,1.4-1.4v-7
		C35.2,26.1,34.6,25.5,33.9,25.5z"/>
	<path style="fill:#808C99;" d="M12.8,26.9v7c0,0.8,0.6,1.4,1.4,1.4h7c0.8,0,1.4-0.6,1.4-1.4v-8.4h-8.4
		C13.4,25.5,12.8,26.1,12.8,26.9z"/>
	<path style="fill:#808C99;" d="M33.9,12.8h-7c-0.8,0-1.4,0.6-1.4,1.4v8.4h8.4c0.8,0,1.4-0.6,1.4-1.4v-7
		C35.2,13.4,34.6,12.8,33.9,12.8z"/>
</g>
</svg>
