<?xml version="1.0" encoding="utf-8"?>
<!-- Generator: Adobe Illustrator 23.1.1, SVG Export Plug-In . SVG Version: 6.00 Build 0)  -->
<svg version="1.1" id="func_x5F_options" xmlns="http://www.w3.org/2000/svg" xmlns:xlink="http://www.w3.org/1999/xlink" x="0px"
	 y="0px" viewBox="0 0 48 48" style="enable-background:new 0 0 48 48;" xml:space="preserve">
<g id="options">
	<path id="path4136_3_" style="fill:#808C99;" d="M21.7,12l-0.5,3c-0.5,0.2-1.1,0.4-1.6,0.7l-2.5-1.7l-3.2,3.2l1.8,2.5
		c-0.3,0.5-0.5,1-0.7,1.6l-3,0.5v4.5l3,0.5c0.2,0.5,0.4,1.1,0.7,1.6l-1.7,2.5l3.2,3.2l2.5-1.8c0.5,0.3,1,0.5,1.6,0.7l0.5,3h4.5
		l0.5-3c0.5-0.2,1.1-0.4,1.6-0.7l2.5,1.7l3.2-3.2l-1.8-2.5c0.3-0.5,0.5-1,0.7-1.6l3-0.5v-4.5l-3-0.5c-0.2-0.5-0.4-1.1-0.7-1.6
		l1.7-2.5l-3.2-3.2l-2.5,1.8c-0.5-0.3-1-0.5-1.6-0.7l-0.5-3H21.7z M24.1,20.6c0.9,0,1.7,0.4,2.4,1c1.3,1.3,1.3,3.5,0,4.8
		c-1.3,1.3-3.5,1.3-4.8,0c-1.3-1.3-1.3-3.5,0-4.8C22.2,20.9,23.1,20.6,24.1,20.6z"/>
</g>
</svg>
