<?xml version="1.0" encoding="utf-8"?>
<!-- Generator: Adobe Illustrator 23.1.1, SVG Export Plug-In . SVG Version: 6.00 Build 0)  -->
<svg version="1.1" id="Banner" xmlns="http://www.w3.org/2000/svg" xmlns:xlink="http://www.w3.org/1999/xlink" x="0px" y="0px"
	 viewBox="0 0 144 128" style="enable-background:new 0 0 144 128;" xml:space="preserve">
<g id="BrandText_3_">
	<polygon id="E_8_" style="fill:#FFFFFF;" points="127,62 127,51.5 131.7,51.5 131.7,53.1 128.8,53.1 128.8,55.8 131,55.8 131,57.3 
		128.8,57.3 128.8,60.4 131.9,60.4 131.9,62 	"/>
	<polygon id="L_2_" style="fill:#FFFFFF;" points="121.6,62 121.6,51.5 123.4,51.5 123.4,60.4 126.2,60.4 126.2,62 	"/>
	<path id="B_2_" style="fill:#FFFFFF;" d="M114.8,51.1h2.6c0.9,0,1.6,0.2,2.1,0.7c0.4,0.5,0.6,1.2,0.6,2.1c0,0.2,0,0.4-0.1,0.7
		c0,0.2-0.1,0.4-0.2,0.6c-0.1,0.2-0.2,0.4-0.4,0.5c-0.2,0.2-0.3,0.3-0.5,0.4c0.4,0.2,0.8,0.5,1,0.9c0.2,0.4,0.4,0.9,0.4,1.6
		c0,0.4,0,0.8-0.1,1.2c-0.1,0.4-0.3,0.7-0.5,1c-0.2,0.3-0.5,0.5-0.8,0.6c-0.3,0.2-0.8,0.2-1.3,0.2h-2.8V51.1z M116.5,55.4h0.6
		c0.3,0,0.6-0.1,0.8-0.3c0.2-0.2,0.3-0.6,0.3-1c0-1-0.4-1.5-1.1-1.5h-0.7V55.4z M116.5,60.1h0.7c0.5,0,0.8-0.1,1-0.4
		c0.2-0.3,0.3-0.7,0.3-1.2c0-0.5-0.1-0.9-0.3-1.2c-0.2-0.3-0.6-0.4-1.1-0.4h-0.6V60.1z"/>
	<rect id="I_8_" x="111.2" y="51.1" style="fill:#FFFFFF;" width="2" height="10.5"/>
	<path id="D_2_" style="fill:#FFFFFF;" d="M104.3,51.1h2.6c0.9,0,1.6,0.3,2.1,0.8c0.5,0.5,0.7,1.3,0.7,2.4v4.1
		c0,1.1-0.2,1.9-0.7,2.4c-0.5,0.5-1.2,0.8-2.1,0.8h-2.6V51.1z M106.1,60.1h0.6c0.5,0,0.8-0.1,1-0.3c0.2-0.2,0.3-0.6,0.3-1.1V54
		c0-0.5-0.1-0.9-0.3-1.1c-0.2-0.2-0.5-0.3-1-0.3h-0.6V60.1z"/>
	<polygon id="E_7_" style="fill:#FFFFFF;" points="98.1,62 98.1,51.5 102.8,51.5 102.8,53.1 99.8,53.1 99.8,55.8 102.1,55.8 
		102.1,57.3 99.8,57.3 99.8,60.4 103,60.4 103,62 	"/>
	<path id="R_5_" style="fill:#FFFFFF;" d="M93,61.6h-1.7V51.1h2.4c1,0,1.7,0.2,2.2,0.7c0.5,0.5,0.7,1.3,0.7,2.4c0,0.4,0,0.8-0.1,1.1
		c-0.1,0.3-0.2,0.6-0.3,0.8s-0.2,0.4-0.4,0.5c-0.1,0.1-0.3,0.2-0.4,0.3l1.5,4.7h-1.7l-1.2-4.3c-0.1,0-0.2,0-0.4,0
		c-0.2,0-0.3,0-0.5,0V61.6z M93,55.8h0.6c0.2,0,0.4,0,0.6-0.1c0.2,0,0.3-0.1,0.4-0.3c0.1-0.1,0.2-0.3,0.2-0.5c0-0.2,0.1-0.5,0.1-0.8
		c0-0.6-0.1-1-0.3-1.3c-0.2-0.2-0.5-0.3-1-0.3H93V55.8z"/>
	<path id="C_5_" style="fill:#FFFFFF;" d="M88.2,54.8V54c0-0.5-0.1-0.8-0.3-1c-0.2-0.2-0.4-0.3-0.6-0.3c-0.4,0-0.6,0.1-0.7,0.3
		c-0.1,0.2-0.2,0.5-0.2,0.9v5.4c0,0.4,0.1,0.7,0.2,0.9c0.1,0.2,0.4,0.3,0.7,0.3c0.3,0,0.5-0.1,0.7-0.3c0.1-0.2,0.2-0.5,0.2-0.8v-1.3
		H90v1.2c0,0.4-0.1,0.7-0.2,1.1c-0.1,0.3-0.3,0.6-0.5,0.9c-0.2,0.2-0.5,0.4-0.8,0.6c-0.3,0.1-0.7,0.2-1.1,0.2
		c-0.5,0-0.9-0.1-1.2-0.2c-0.3-0.1-0.6-0.3-0.8-0.6c-0.2-0.2-0.4-0.5-0.5-0.9c-0.1-0.3-0.2-0.7-0.2-1.1v-5.5c0-0.4,0.1-0.7,0.2-1.1
		c0.1-0.3,0.3-0.6,0.5-0.9c0.2-0.2,0.5-0.4,0.8-0.6c0.3-0.1,0.7-0.2,1.2-0.2c0.4,0,0.8,0.1,1.1,0.2c0.3,0.2,0.6,0.4,0.8,0.6
		c0.2,0.3,0.4,0.6,0.5,0.9c0.1,0.4,0.2,0.7,0.2,1.1v0.8H88.2z"/>
	<polygon id="N_5_" style="fill:#FFFFFF;" points="77.4,62 77.4,51.5 79,51.5 81.1,57.5 81.1,57.5 81.1,51.5 82.7,51.5 82.7,62 
		81.2,62 79,55.5 79,55.5 79,62 	"/>
	<rect id="I_7_" x="74" y="51.1" style="fill:#FFFFFF;" width="2" height="10.5"/>
	<polygon id="F_2_" style="fill:#FFFFFF;" points="65.6,62 65.6,51.5 70.6,51.5 70.6,53.1 67.4,53.1 67.4,55.8 69.8,55.8 69.8,57.3 
		67.4,57.3 67.4,62 	"/>
	<path id="O_2_" style="fill:#FFFFFF;" d="M58.8,53.9c0-0.4,0.1-0.7,0.2-1.1c0.1-0.3,0.3-0.6,0.5-0.9c0.2-0.2,0.5-0.4,0.8-0.6
		c0.3-0.1,0.7-0.2,1.2-0.2c0.5,0,0.9,0.1,1.2,0.2c0.3,0.1,0.6,0.3,0.8,0.6c0.2,0.2,0.4,0.5,0.5,0.9c0.1,0.3,0.2,0.7,0.2,1.1v5.5
		c0,0.4-0.1,0.7-0.2,1.1c-0.1,0.3-0.3,0.6-0.5,0.9c-0.2,0.2-0.5,0.4-0.8,0.6c-0.3,0.1-0.7,0.2-1.2,0.2c-0.5,0-0.9-0.1-1.2-0.2
		c-0.3-0.1-0.6-0.3-0.8-0.6c-0.2-0.2-0.4-0.5-0.5-0.9c-0.1-0.3-0.2-0.7-0.2-1.1V53.9z M60.6,59.4c0,0.4,0.1,0.7,0.2,0.9
		c0.1,0.2,0.4,0.3,0.7,0.3c0.4,0,0.6-0.1,0.7-0.3c0.1-0.2,0.2-0.5,0.2-0.9V54c0-0.4-0.1-0.7-0.2-0.9c-0.1-0.2-0.4-0.3-0.7-0.3
		c-0.4,0-0.6,0.1-0.7,0.3c-0.1,0.2-0.2,0.5-0.2,0.9V59.4z"/>
	<polygon id="H_2_" style="fill:#FFFFFF;" points="49.4,62 49.4,51.5 51.2,51.5 51.2,55.8 53,55.8 53,51.5 54.7,51.5 54.7,62 53,62 
		53,57.3 51.2,57.3 51.2,62 	"/>
	<path id="C_4_" style="fill:#FFFFFF;" d="M46,54.8V54c0-0.5-0.1-0.8-0.3-1c-0.2-0.2-0.4-0.3-0.6-0.3c-0.4,0-0.6,0.1-0.7,0.3
		c-0.1,0.2-0.2,0.5-0.2,0.9v5.4c0,0.4,0.1,0.7,0.2,0.9c0.1,0.2,0.4,0.3,0.7,0.3c0.3,0,0.5-0.1,0.7-0.3c0.1-0.2,0.2-0.5,0.2-0.8v-1.3
		h1.7v1.2c0,0.4-0.1,0.7-0.2,1.1c-0.1,0.3-0.3,0.6-0.5,0.9c-0.2,0.2-0.5,0.4-0.8,0.6c-0.3,0.1-0.7,0.2-1.1,0.2
		c-0.5,0-0.8-0.1-1.2-0.2c-0.3-0.1-0.6-0.3-0.8-0.6c-0.2-0.2-0.4-0.5-0.5-0.9c-0.1-0.3-0.2-0.7-0.2-1.1v-5.5c0-0.4,0.1-0.7,0.2-1.1
		c0.1-0.3,0.3-0.6,0.5-0.9c0.2-0.2,0.5-0.4,0.8-0.6c0.3-0.1,0.7-0.2,1.2-0.2c0.4,0,0.8,0.1,1.1,0.2c0.3,0.2,0.6,0.4,0.8,0.6
		c0.2,0.3,0.4,0.6,0.5,0.9c0.1,0.4,0.2,0.7,0.2,1.1v0.8H46z"/>
	<path id="R_4_" style="fill:#FFFFFF;" d="M37,61.6h-1.7V51.1h2.4c1,0,1.7,0.2,2.2,0.7c0.5,0.5,0.7,1.3,0.7,2.4c0,0.4,0,0.8-0.1,1.1
		c-0.1,0.3-0.2,0.6-0.3,0.8c-0.1,0.2-0.2,0.4-0.4,0.5c-0.1,0.1-0.3,0.2-0.4,0.3l1.5,4.7h-1.7l-1.2-4.3c-0.1,0-0.2,0-0.4,0
		c-0.2,0-0.3,0-0.5,0V61.6z M37,55.8h0.6c0.2,0,0.4,0,0.6-0.1c0.2,0,0.3-0.1,0.4-0.3c0.1-0.1,0.2-0.3,0.2-0.5c0-0.2,0.1-0.5,0.1-0.8
		c0-0.6-0.1-1-0.3-1.3c-0.2-0.2-0.5-0.3-1-0.3H37V55.8z"/>
	<path id="A_2_" style="fill:#FFFFFF;" d="M30.8,61.5h-1.7L30.9,51h2.1l1.8,10.5h-1.7l-0.3-2.3h-1.9L30.8,61.5z M31.3,57.6h1.4
		L32,53.1h0L31.3,57.6z"/>
	<polygon id="E_6_" style="fill:#FFFFFF;" points="23.4,62 23.4,51.5 28.1,51.5 28.1,53.1 25.1,53.1 25.1,55.8 27.4,55.8 27.4,57.3 
		25.1,57.3 25.1,60.4 28.3,60.4 28.3,62 	"/>
	<path id="S_2_" style="fill:#FFFFFF;" d="M20.6,54c0-0.2-0.1-0.4-0.1-0.6c-0.1-0.2-0.1-0.3-0.2-0.4c-0.1-0.1-0.2-0.2-0.3-0.2
		c-0.1,0-0.2-0.1-0.3-0.1c-0.3,0-0.5,0.1-0.6,0.3c-0.2,0.2-0.2,0.4-0.2,0.8c0,0.3,0.1,0.6,0.3,0.8c0.2,0.3,0.4,0.5,0.7,0.8
		c0.3,0.3,0.5,0.5,0.9,0.8c0.3,0.3,0.6,0.5,0.9,0.9c0.3,0.3,0.5,0.7,0.7,1c0.2,0.4,0.3,0.8,0.3,1.3c0,0.4-0.1,0.8-0.2,1.2
		c-0.1,0.3-0.3,0.6-0.6,0.9c-0.2,0.2-0.5,0.4-0.9,0.5c-0.3,0.1-0.7,0.2-1.1,0.2c-0.4,0-0.8-0.1-1.1-0.2c-0.3-0.2-0.6-0.4-0.8-0.6
		c-0.2-0.3-0.4-0.6-0.5-0.9c-0.1-0.4-0.2-0.7-0.2-1.1l1.7-0.3c0,0.5,0.2,0.9,0.3,1.2c0.2,0.3,0.4,0.4,0.7,0.4c0.3,0,0.5-0.1,0.7-0.3
		c0.2-0.2,0.3-0.4,0.3-0.7c0-0.4-0.1-0.7-0.3-0.9c-0.2-0.3-0.4-0.5-0.7-0.8c-0.3-0.3-0.5-0.5-0.9-0.8c-0.3-0.3-0.6-0.5-0.9-0.8
		c-0.3-0.3-0.5-0.6-0.7-1c-0.2-0.4-0.3-0.8-0.3-1.3c0-0.9,0.2-1.5,0.7-2c0.5-0.5,1.1-0.7,2-0.7c0.4,0,0.7,0.1,1,0.2
		c0.3,0.1,0.5,0.3,0.7,0.5c0.2,0.2,0.4,0.5,0.5,0.8c0.1,0.3,0.2,0.7,0.2,1L20.6,54z"/>
	<polygon id="N_4_" style="fill:#FFFFFF;" points="7.8,62 7.8,51.5 9.4,51.5 11.5,57.5 11.5,57.5 11.5,51.5 13.1,51.5 13.1,62 
		11.6,62 9.4,55.5 9.3,55.5 9.3,62 	"/>
	<rect id="I_6_" x="4.3" y="51.1" style="fill:#FFFFFF;" width="1.9" height="10.5"/>
</g>
<g id="BrandLogo">
	<path id="logo" style="fill:#FFFFFF;" d="M134.2,23.7c0-1.5,1.2-2.7,2.8-2.7c0.7,0,1.4,0.3,1.9,0.8c0.5,0.5,0.8,1.2,0.8,1.9
		c0,0.7-0.3,1.4-0.8,1.9c-0.5,0.5-1.2,0.8-1.9,0.8C135.5,26.5,134.2,25.2,134.2,23.7 M134,23.7c0,1.6,1.3,3,3,3
		c0.8,0,1.5-0.3,2.1-0.9c0.6-0.6,0.9-1.3,0.9-2.1c0-0.8-0.3-1.5-0.9-2.1c-0.6-0.6-1.3-0.9-2.1-0.9C135.3,20.8,134,22.1,134,23.7
		 M135.9,25.5h0.4v-1.4h1c0.2,0,0.3,0,0.4,0.1c0.1,0.1,0.2,0.2,0.2,0.4l0,0.5c0,0.1,0,0.2,0,0.2c0,0,0,0.1,0,0.1h0.5v-0.1
		c-0.1,0-0.1-0.1-0.1-0.2c0-0.1,0-0.1,0-0.3l0-0.4c0-0.2,0-0.3-0.1-0.4c-0.1-0.1-0.2-0.2-0.3-0.2c0.1-0.1,0.2-0.2,0.3-0.3
		c0.1-0.1,0.1-0.3,0.1-0.5c0-0.4-0.1-0.6-0.4-0.8c-0.2-0.1-0.4-0.1-0.6-0.1h-1.4V25.5z M136.3,23.7v-1.1h1c0.1,0,0.3,0,0.4,0.1
		c0.1,0.1,0.2,0.2,0.2,0.5c0,0.2-0.1,0.4-0.2,0.4c-0.1,0.1-0.3,0.1-0.5,0.1H136.3z M16.3,27.8L4,46.6h8.4l11.8-18L16.3,27.8z
		 M67,27.4v-7H43.1c-3.3,0.2-4.7,1.7-5.7,2.8c-1.1,1.2-1.8,3.6-1.8,3.6v-6.4H22.8c-1,0-1.9,0.4-2.6,1.3c-0.7,0.9-3.6,5.6-3.6,5.6H67
		z M132.1,27.4v-7h-25.6c-3.2,0.2-4.7,1.7-5.7,2.8c-1.1,1.2-1.8,3.6-1.8,3.6v0.6L132.1,27.4z M75.4,20.4h-7.2v6.9h7.2V20.4z
		 M98.9,20.4h-7.1v6.9h7.1V20.4z M98.9,29.9l-7-0.4v8.1c0,0,0,2.3-2.3,2.3H77.4c0,0-2-0.2-2-2.3v-9.2l-7.1-0.5v12.3
		c1.1,5.9,6.6,6.4,6.6,6.4s0.6,0,0.6,0h16.3c0,0,7-0.5,7-7.1V29.9z M28.3,46.6h33.5c5.8-1.1,6.4-6.3,6.4-6.3
		c0.3-1.5,0.1-2.8,0.1-2.8c-0.2-1-2.2-5.6-6.6-6c-2.6-0.2-25.8-2-25.8-2c0.4,2.3,1.5,3.4,2.2,4.1c1.6,1.5,4.2,1.9,4.2,1.9
		c0.6,0.1,17.9,1.5,17.9,1.5c0.5,0,1.6,0.2,1.6,1.5c0,0.2-0.2,1.3-1.5,1.3h-25V29.4l-7-0.5V46.6z M98.9,46.7h25.6
		c6.4-0.4,7.3-6.3,7.3-6.3c0.2-1.6,0-2.8,0-2.8c-0.2-1.4-2.2-5.6-6.6-6c-2.6-0.2-25.9-1.6-25.9-1.6c0.7,2.3,1.6,3.1,2.3,3.7
		c1.6,1.5,4,1.9,4,1.9c0.6,0,18.1,1.5,18.1,1.5c0.6,0,1.7,0.1,1.7,1.4c0,0.4-0.2,0.8-0.5,1c0,0-0.6,0.3-1.2,0.3H98.9L98.9,46.7z"/>
</g>
</svg>
