<?xml version="1.0" encoding="utf-8"?>
<!-- Generator: Adobe Illustrator 23.1.1, SVG Export Plug-In . SVG Version: 6.00 Build 0)  -->
<svg version="1.1" id="vol_x5F_clover" xmlns="http://www.w3.org/2000/svg" xmlns:xlink="http://www.w3.org/1999/xlink" x="0px"
	 y="0px" viewBox="0 0 128 128" style="enable-background:new 0 0 128 128;" xml:space="preserve">
<g id="clover_x5F_logo">
	<path style="fill:#7E8996;" d="M64.9,62.5c0,0,9.1,0,17.2,0s16.2-15.1,7.1-24.2c-10.5-10.5-24.4,0.4-24.4,8.2
		C64.8,54.4,64.9,62.5,64.9,62.5z"/>
	<path style="fill:#7E8996;" d="M64.8,65.6c0,0,0,9.1,0,17.2S79.9,99,89,89.9c10.5-10.5-0.4-24.3-8.2-24.4
		C72.9,65.4,64.8,65.6,64.8,65.6z"/>
	<path style="fill:#7E8996;" d="M61.9,65.5c0,0-9.1,0-17.2,0s-16.2,15.1-7.1,24.2c10.5,10.5,24.3-0.4,24.4-8.2
		C62.1,73.6,61.9,65.5,61.9,65.5z"/>
	<path style="fill:#7E8996;" d="M49.5,34.1c6.7-0.1,12.5,6.6,12.5,11.6c0,8.1,0,16.7,0,16.7s-8.1,0.1-16,0.1
		c-7.6,0-12.5-6.3-12.5-11.1c-0.1-7.4,0-17.2,0-17.2S41.7,34.2,49.5,34.1z"/>
</g>
</svg>
