<?xml version="1.0" encoding="utf-8"?>
<!-- Generator: Adobe Illustrator 23.1.1, SVG Export Plug-In . SVG Version: 6.00 Build 0)  -->
<svg version="1.1" id="vol_x5F_external" xmlns="http://www.w3.org/2000/svg" xmlns:xlink="http://www.w3.org/1999/xlink" x="0px"
	 y="0px" viewBox="0 0 128 128" style="enable-background:new 0 0 128 128;" xml:space="preserve">
<g id="USBicon">
	<path id="usbroot" style="fill:#7E8996;" d="M64,26.9l-7.8,13.5h6.1v41c-0.6-0.6-1.2-1.1-1.9-1.8c-3.4-3.4-7.1-7.7-8.1-10.2
		c-1-2.5-1.5-5.9-1.7-9c0,0,0,0,0,0c2.9-0.8,4.9-3.5,4.9-6.5c0-3.7-3-6.7-6.7-6.7l0,0c-3.7,0-6.7,3-6.7,6.7l0,0
		c0,3.1,2.1,5.8,5.2,6.5c0.2,3.3,0.6,7.1,1.9,10.3c1.5,3.7,5.4,7.8,8.9,11.3c1.8,1.8,3.2,3,4.3,4v1.7c-3,0.8-5.1,3.4-5.1,6.5
		c0,3.7,3,6.7,6.7,6.7l0,0c3.7,0,6.7-3,6.7-6.7l0,0c0-3.1-2.1-5.7-5.1-6.5v-5.1c1.1-1,2.5-2.3,4.3-4c3.5-3.5,7.3-7.6,8.9-11.3
		c1.3-3.1,1.7-6.8,1.9-10.1h5.2V43.8H72.4v13.5h4.9c-0.2,3-0.7,6.4-1.7,8.8c-1.1,2.6-4.7,6.8-8.1,10.2c-0.7,0.7-1.3,1.2-1.9,1.8
		V40.4h6.1L64,26.9z"/>
</g>
</svg>
