<?xml version="1.0" encoding="utf-8"?>
<!-- Generator: Adobe Illustrator 23.1.1, SVG Export Plug-In . SVG Version: 6.00 Build 0)  -->
<svg version="1.1" id="vol_x5F_recovery" xmlns="http://www.w3.org/2000/svg" xmlns:xlink="http://www.w3.org/1999/xlink" x="0px"
	 y="0px" viewBox="0 0 128 128" style="enable-background:new 0 0 128 128;" xml:space="preserve">
<g id="recovery">
	<path id="mapRect" style="fill:#7E8996;" d="M63.9,32c-17.7,0-32,14.3-32,32s14.3,32,32,32s32-14.3,32-32S81.6,32,63.9,32z
		 M79.2,54.1l0.1-2.3l2.8-1.2l2.2-3.6l3.5,2.4l2-2.8c1.6,2.3,2.8,4.7,3.7,7.4L91.3,54l-1.8,1.7L86.1,54l-0.4,1.7L82.9,53l-3.2,3.1
		l-0.4,1.5l-6.5-1.6l3.6-2L79.2,54.1z M70.5,36.5l0.5,2.1v2.4l-4.4,1.3L66.4,44L65,43.8L63.1,45l-0.4,1.7l-2.3-0.1l-1.9-2.9l1.4-1.2
		l-4.7-5.5L52.8,38l-1.1-1l-2.2,0.6l-1.4,1.2l-2,1.8L45,41l-0.5,0.6l-1.3,1.6l1.2,1.4l0.5-1l2.2,0.3l-1.6,1.4l-2.1,1.3l-0.5,2.4
		l1.5,3l2.6,0.5l2.3,1.2l1.5-1.9l-1-3.3l2.9,0.7l1.7-0.8l2.4,2.8l2.4,1.7l-1.6,1.4l-2.8-0.2l0.8,1.7L54,56.4l-0.6,1.7l-1.5,0.5
		l-1.4,2.8l-1.3,0.7l0.7,2.9l-2.1-1.5l-3.6,0.6l-0.4,1.5l1,1.9l2.1-0.1l3.5,2.9l6.5-1.4l5.4,2.2l0.8,2.8l3.9,1.2l1.3-0.7l0.4,2
		l-1,2.5l-0.4,1.9l-2.4,2.1l-2.3,3l-0.1,1.9l-2.8,2.4l-2,4.3c-1.1-0.2-2.2-0.5-3.3-0.9l0.1-5.1l0.9-3l0.1-3.3l-3.4-3.4l-1.4-2.6
		l1.2-3.9l-4.5-2.9L42,69l-4.5-6l-0.7,1.3l-3.9-1.6c0.6-14.6,11.3-26.9,25.7-29.4c4.1-0.7,8.4-0.6,12.5,0.4
		C70.8,35.4,70.5,36.5,70.5,36.5z M86.8,77.7l0.4-3.1l-2.5-2.1l0.2-2.6l-3,0.3l-1.7,1L76.7,69l-2.1-2.9l0.5-3.6l2.5-0.4l0.4-2.9
		l3.7-1.4l2.7-0.7l3.2,2.5l3-0.1l3.7-2.4c0.1,0.5,0.2,1,0.3,1.4c1.5,8.5-0.6,17.3-5.9,24.2L86.8,77.7z"/>
	<path style="fill:#7E8996;" d="M63.9,95.3c-17.2,0-31.3-14-31.3-31.3c0-17.2,14-31.3,31.3-31.3c17.2,0,31.3,14,31.3,31.3
		C95.2,81.2,81.2,95.3,63.9,95.3z M63.9,34.8c-16.1,0-29.2,13.1-29.2,29.2s13.1,29.2,29.2,29.2S93.1,80.1,93.1,64S80,34.8,63.9,34.8
		z"/>
</g>
</svg>
