<?xml version="1.0" encoding="utf-8"?>
<!-- Generator: Adobe Illustrator 23.1.1, SVG Export Plug-In . SVG Version: 6.00 Build 0)  -->
<svg version="1.1" id="vol_x5F_optical" xmlns="http://www.w3.org/2000/svg" xmlns:xlink="http://www.w3.org/1999/xlink" x="0px"
	 y="0px" viewBox="0 0 128 128" style="enable-background:new 0 0 128 128;" xml:space="preserve">
<g id="optical">
	<path id="OpticalLogo" style="fill:#7E8996;" d="M64,32c-17.7,0-32,14.3-32,32c0,17.7,14.3,32,32,32s32-14.3,32-32S81.7,32,64,32z
		 M64,51.2c7.1,0,12.8,5.7,12.8,12.8S71.1,76.8,64,76.8S51.2,71.1,51.2,64S56.9,51.2,64,51.2z M64,54.4c-5.3,0-9.6,4.3-9.6,9.6
		s4.3,9.6,9.6,9.6s9.6-4.3,9.6-9.6S69.3,54.4,64,54.4z M64,59.2c2.7,0,4.8,2.1,4.8,4.8s-2.1,4.8-4.8,4.8s-4.8-2.1-4.8-4.8
		S61.3,59.2,64,59.2z"/>
</g>
</svg>
