<?xml version="1.0" encoding="utf-8"?>
<!-- Generator: Adobe Illustrator 23.1.1, SVG Export Plug-In . SVG Version: 6.00 Build 0)  -->
<svg version="1.1" id="func_x5F_help" xmlns="http://www.w3.org/2000/svg" xmlns:xlink="http://www.w3.org/1999/xlink" x="0px"
	 y="0px" viewBox="0 0 48 48" style="enable-background:new 0 0 48 48;" xml:space="preserve">
<g id="helpme">
	<path style="fill:#808C99;" d="M24,12c-6.6,0-12,5.4-12,12s5.4,12,12,12s12-5.4,12-12S30.6,12,24,12z M24.6,30.9h-2.2v-2.1h2.2
		V30.9z M25.9,24.3c-1,0.7-1.5,1.4-1.4,2.4c0,0.2,0,0.4,0,0.5h-1.8c0-0.2,0-0.4,0-0.7c0-1.3,0.5-2.3,1.7-3.1
		c1.2-0.9,1.8-1.8,1.8-2.6c-0.1-1.2-0.8-1.9-2.1-2c-1.5,0-2.5,0.9-2.9,2.6L19.2,21c0.5-2.7,2.2-4,5.1-3.8c2.4,0.1,3.8,1.3,4,3.4
		C28.4,22,27.6,23.2,25.9,24.3z"/>
</g>
</svg>
